<?xml version="1.0" standalone="no"?>
<!DOCTYPE svg PUBLIC "-//W3C//DTD SVG 20010904//EN"
 "http://www.w3.org/TR/2001/REC-SVG-20010904/DTD/svg10.dtd">
<svg version="1.0" xmlns="http://www.w3.org/2000/svg"
 width="3000.000000pt" height="1000.000000pt" viewBox="0 0 3000.000000 1000.000000"
 preserveAspectRatio="xMidYMid meet">

<g transform="translate(0.000000,1000.000000) scale(0.100000,-0.100000)"
fill="#000000" stroke="none">
<path d="M2410 7478 c-52 -5 -151 -20 -220 -34 -484 -97 -833 -342 -1019 -713
-45 -89 -71 -153 -48 -117 85 133 125 185 202 261 234 235 582 382 1002 426
161 16 512 6 658 -20 369 -64 661 -191 925 -401 114 -91 270 -253 360 -375
l74 -99 38 79 c20 44 38 85 38 91 0 25 -160 225 -265 330 -336 338 -751 526
-1270 574 -129 12 -340 11 -475 -2z"/>
<path d="M23075 7445 c-735 -93 -1213 -504 -1295 -1112 -20 -146 -9 -394 24
-518 44 -170 135 -332 261 -470 l56 -60 -45 65 c-128 190 -181 378 -180 645 2
557 292 972 829 1185 199 79 420 119 701 127 310 9 558 -24 809 -108 310 -103
567 -267 801 -512 l108 -112 -81 100 c-203 253 -442 446 -708 575 -193 93
-347 141 -580 181 -158 27 -538 35 -700 14z"/>
<path d="M14877 7348 c-14 -40 -366 -1038 -782 -2218 l-756 -2144 3 -82 3 -82
776 2202 776 2201 471 3 470 2 20 -52 c10 -29 361 -1022 778 -2207 l759 -2155
3 82 3 82 -777 2202 c-427 1212 -780 2211 -785 2221 -9 16 -42 17 -473 17
l-463 0 -26 -72z"/>
<path d="M4575 7351 c-8 -16 -20 -35 -28 -43 -7 -7 -22 -30 -34 -50 l-22 -38
502 0 503 0 499 -851 c274 -467 501 -852 505 -854 9 -5 100 149 91 155 -4 3
-232 389 -506 857 l-500 853 -497 0 -497 0 -16 -29z"/>
<path d="M7603 7358 c-22 -24 -83 -121 -83 -132 0 -3 226 -6 503 -6 l503 0 37
69 c20 37 37 73 37 80 0 8 -132 11 -488 11 l-489 0 -20 -22z"/>
<path d="M17877 7374 c-4 -4 -7 -1002 -7 -2219 l0 -2211 58 -77 57 -77 3 2215
2 2215 918 0 c540 0 966 -4 1037 -10 571 -49 965 -218 1204 -515 31 -39 31
-38 -5 20 -193 313 -512 517 -945 604 -268 54 -263 54 -1324 58 -545 2 -994 1
-998 -3z"/>
<path d="M25960 5142 l0 -2218 70 -69 70 -69 0 2217 0 2217 1512 0 1512 0 -69
70 -69 70 -1513 0 -1513 0 0 -2218z"/>
<path d="M25140 6566 c0 -2 8 -10 18 -17 15 -13 16 -12 3 4 -13 16 -21 21 -21
13z"/>
<path d="M1987 6268 c-94 -164 -60 -380 79 -507 139 -127 324 -203 859 -351
301 -83 426 -123 590 -187 477 -185 751 -423 870 -757 83 -233 88 -550 10
-793 -13 -42 -23 -79 -21 -80 7 -7 75 156 100 237 46 154 59 257 53 445 -4
141 -9 187 -31 270 -111 424 -442 707 -1076 919 -75 25 -266 81 -425 126 -375
104 -503 148 -652 221 -200 97 -297 205 -322 359 -6 36 -8 81 -5 102 4 21 4
38 1 38 -4 0 -17 -19 -30 -42z"/>
<path d="M20295 6210 c3 -14 14 -50 23 -80 23 -80 23 -322 -1 -410 -55 -204
-185 -329 -407 -393 -133 -39 -240 -47 -607 -47 l-343 0 0 -80 0 -80 408 0
c510 0 603 12 777 95 209 100 305 278 305 562 0 134 -19 227 -65 318 -40 80
-101 158 -90 115z"/>
<path d="M24418 6075 c28 -38 70 -88 93 -110 49 -46 40 -31 -48 76 -83 102
-108 120 -45 34z"/>
<path d="M22911 5849 c21 -39 93 -111 153 -152 131 -88 300 -151 761 -282 487
-138 668 -203 874 -311 146 -77 241 -144 350 -249 l94 -90 -54 70 c-257 334
-582 506 -1385 729 -417 117 -630 195 -750 275 -54 37 -58 38 -43 10z"/>
<path d="M27080 5520 l0 -70 737 0 737 0 -39 41 c-22 23 -53 55 -70 70 l-30
28 -667 1 -668 0 0 -70z"/>
<path d="M7032 4736 l-42 -73 2 -929 3 -928 43 84 43 85 -3 917 -3 917 -43
-73z"/>
<path d="M14853 4565 l-31 -95 515 0 c408 0 514 3 511 13 -3 6 -17 49 -32 95
l-28 82 -452 0 -452 0 -31 -95z"/>
<path d="M1226 4197 l-358 -212 -38 -88 c-34 -79 -36 -87 -17 -74 149 95 712
418 715 409 7 -21 114 -187 155 -241 146 -189 366 -347 597 -429 161 -57 234
-67 460 -66 188 1 213 3 305 27 238 63 382 179 431 347 6 21 1 19 -42 -19 -27
-24 -71 -56 -99 -72 -65 -38 -209 -84 -310 -99 -111 -17 -351 -15 -457 4 -354
64 -653 257 -857 556 -32 47 -68 104 -80 128 -12 23 -27 42 -34 42 -6 0 -173
-96 -371 -213z"/>
<path d="M21938 4167 c-204 -120 -358 -218 -358 -226 0 -43 212 -355 319 -471
l51 -55 -51 70 c-80 107 -206 313 -197 319 2 2 161 96 355 210 193 114 358
213 367 219 15 11 10 20 -39 80 -30 37 -63 67 -73 67 -9 0 -178 -96 -374 -213z"/>
<path d="M24262 4277 c16 -43 19 -70 16 -157 -3 -95 -6 -112 -35 -170 -71
-144 -222 -241 -458 -292 -83 -18 -428 -17 -520 1 -246 49 -467 163 -644 334
l-74 72 49 -65 c183 -244 463 -420 777 -487 117 -26 437 -25 557 1 113 24 200
59 282 113 79 52 127 106 165 189 26 54 28 69 28 174 0 103 -3 121 -26 170
-29 60 -73 120 -112 150 l-25 20 20 -53z"/>
<path d="M27080 3645 l0 -65 1072 0 1072 0 -64 65 -64 65 -1008 0 -1008 0 0
-65z"/>
</g>
</svg>
